<?xml version="1.0" encoding="utf-8"?>
<!-- Generator: Adobe Illustrator 22.0.1, SVG Export Plug-In . SVG Version: 6.00 Build 0)  -->
<svg version="1.1" id="Layer_1" xmlns="http://www.w3.org/2000/svg" xmlns:xlink="http://www.w3.org/1999/xlink" x="0px" y="0px"
	 viewBox="0 0 134.7 101.8" style="enable-background:new 0 0 134.7 101.8;" xml:space="preserve">
<style type="text/css">
	.st0{clip-path:url(#SVGID_2_);fill:#FFFFFF;}
	.st1{clip-path:url(#SVGID_2_);fill:#CEAD78;}
	.st2{clip-path:url(#SVGID_2_);fill:#EC1C24;}
	.st3{clip-path:url(#SVGID_2_);fill:none;stroke:#EC1C24;stroke-width:8.000000e-02;stroke-miterlimit:3.864;}
	.st4{clip-path:url(#SVGID_2_);fill:none;stroke:#008F4C;stroke-width:0.56;stroke-miterlimit:3.864;}
	.st5{clip-path:url(#SVGID_2_);fill:none;stroke:#008F4C;stroke-width:0.48;stroke-miterlimit:3.864;}
	.st6{clip-path:url(#SVGID_2_);fill:none;stroke:#008F4C;stroke-width:1.601;stroke-miterlimit:3.864;}
	.st7{clip-path:url(#SVGID_2_);fill:#008F4C;}
	.st8{clip-path:url(#SVGID_2_);fill:none;stroke:#008F4C;stroke-width:0.32;stroke-miterlimit:3.864;}
	.st9{clip-path:url(#SVGID_2_);fill:#9D0B0F;}
	.st10{clip-path:url(#SVGID_2_);fill:none;stroke:#FFDD00;stroke-width:0.641;stroke-miterlimit:3.864;}
	.st11{clip-path:url(#SVGID_2_);fill:none;stroke:#008F4C;stroke-width:0.16;stroke-miterlimit:3.864;}
	.st12{clip-path:url(#SVGID_2_);fill:none;stroke:#FFFFFF;stroke-width:0.32;stroke-miterlimit:3.864;}
	.st13{clip-path:url(#SVGID_2_);fill:none;stroke:#FFFFFF;stroke-width:0.16;}
	.st14{clip-path:url(#SVGID_2_);fill:none;stroke:#FFFFFF;stroke-width:0.16;stroke-miterlimit:3.864;}
	.st15{clip-path:url(#SVGID_2_);fill:none;stroke:#008F4C;stroke-width:0.801;stroke-miterlimit:3.864;}
	.st16{clip-path:url(#SVGID_2_);fill:none;stroke:#008F4C;stroke-width:0.583;}
	.st17{clip-path:url(#SVGID_2_);fill:none;stroke:#FFFFFF;stroke-width:0.32;}
	.st18{clip-path:url(#SVGID_2_);fill:none;stroke:#008F4C;stroke-width:0.293;stroke-miterlimit:3.864;}
	.st19{clip-path:url(#SVGID_2_);fill:none;stroke:#008F4C;stroke-width:8.000000e-02;stroke-miterlimit:3.864;}
	.st20{clip-path:url(#SVGID_2_);fill:none;stroke:#008F4C;stroke-width:5.100000e-02;stroke-miterlimit:3.864;}
	.st21{clip-path:url(#SVGID_2_);fill:none;stroke:#FFFFFF;stroke-width:0.267;stroke-miterlimit:3.864;}
</style>
<g>
	<defs>
		<rect id="SVGID_1_" width="134.7" height="101.8"/>
	</defs>
	<clipPath id="SVGID_2_">
		<use xlink:href="#SVGID_1_"  style="overflow:visible;"/>
	</clipPath>
	<path class="st0" d="M41,100.3c-1.6,0-3.2-0.3-4.6-1c-0.3,0.3-0.7,0.4-1.1,0.4H24c-1.1,0.3-2.2,0.5-3.4,0.5c-0.1,0-0.2,0-0.3,0
		c-2.7-0.1-7.4-1-9.9-6.3l-5.8,3.8C4.2,97.9,3.9,98,3.6,98c-0.4,0-0.8-0.1-1.1-0.4c-0.5-0.5-0.6-1.3-0.3-1.9l6.3-11.5
		c0.1-2.1,0.3-4.1,0.8-5.8l-6.6-1.1c-0.6-0.1-1.1-0.6-1.2-1.2c-0.1-0.6,0.1-1.2,0.6-1.6L5.5,72c5.1-3.7,10.4-6.7,15.8-8.8l0,0
		c0.3-0.2,0.7-0.3,1.2-0.5c0,0,0.4-0.1,0.4-0.1v-0.7c0-0.5,0.2-0.9,0.6-1.2l0.7-0.5c1.8-1.5,4-2.6,6.7-3.5v-6.8c0,0,0,0-0.1,0
		c-0.5-0.4-0.8-1.1-0.6-1.7l1.4-4.1l-3.5-2.6c-0.5-0.4-0.8-1.1-0.5-1.7c0.2-0.6,0.8-1.1,1.5-1.1h4.3l1.3-4c0.2-0.6,0.8-1.1,1.5-1.1
		h0c0.7,0,1.3,0.4,1.5,1.1l1.3,4h4.3c0.7,0,1.3,0.4,1.5,1.1c0.1,0.4,0.1,0.8-0.1,1.1c3.1,0.5,6.4,2.9,9.8,5.3
		c0.9,0.6,1.8,1.2,2.6,1.8V42c-0.6-0.2-1.1-0.8-1.1-1.5v-11c0-0.7,0.5-1.3,1.1-1.5v-9.2c-0.6-1.5-0.2-3,0.4-3.9
		c0.1-0.1,0.2-0.3,0.3-0.4c0,0-0.1,0-0.1-0.1c-0.5-0.4-0.8-1.1-0.6-1.7l0.9-2.8l-2.4-1.8C55,7.8,54.8,7.1,55,6.4
		c0.2-0.6,0.8-1.1,1.5-1.1h2.9l0.9-2.7c0.2-0.6,0.8-1.1,1.5-1.1h0c0.7,0,1.3,0.4,1.5,1.1l0.9,2.7H67c0.7,0,1.3,0.4,1.5,1.1
		c0.2,0.6,0,1.3-0.5,1.7l-2.4,1.8l0.9,2.8c0.2,0.6,0,1.3-0.6,1.7c0,0-0.1,0-0.1,0.1c0.1,0.2,0.3,0.3,0.4,0.5c0.5,0.9,0.7,2,0.5,3
		c0,0.1,0,0.2,0,0.3V28c0.6,0.2,1.1,0.8,1.1,1.5v8.7c2.5-2.5,5.9-4,9.7-4c6.4,0,11.8,4.4,13.3,10.2c0.4-0.2,0.9-0.3,1.4-0.3V44
		c0-0.1,0-0.2,0-0.3c-0.2-0.6-0.4-1.2-0.4-1.9c0-2.9,2.3-5.2,5.2-5.2c2.3,0,4.3,1.5,4.9,3.7c0.1,0.5,0,1-0.3,1.4
		c0,0-0.1,0.1-0.1,0.1c0,0,0.1,0.1,0.1,0.1c0.3,0.4,0.4,1,0.2,1.5c-0.1,0.4-0.3,0.7-0.5,1v1c0.3,0.3,0.5,0.7,0.5,1.2v9.8
		c2.7,0.8,5,1.9,6.9,3.2l0.8,0.5c0.4,0.3,0.7,0.8,0.7,1.3v1.2c0.2,0.1,0.3,0.1,0.4,0.1l1.4,0.5c5.7,2.1,11.4,5.2,16.8,9.1l3.4,2.4
		c0.5,0.4,0.7,1,0.6,1.6c-0.1,0.6-0.6,1.1-1.2,1.2l-7.3,1.3l0,3.3l7.7,14c0.3,0.6,0.2,1.4-0.3,1.9c-0.3,0.3-0.7,0.4-1.1,0.4
		c-0.3,0-0.6-0.1-0.9-0.3l-5.4-3.6l0,3.4c0,0.4-0.2,0.8-0.5,1.1c-0.3,0.3-0.7,0.5-1.1,0.5c0,0-9,0-9,0c-0.5,0.2-1.1,0.2-1.7,0.3
		c-0.3,0-0.5,0-0.7,0c-0.8,0-1.4-0.1-2-0.3H93.7c-0.9,0.2-1.8,0.3-2.8,0.3h-0.1c-1,0-1.9-0.1-2.7-0.3l-14.1,0c-0.1,0-0.2,0-0.3,0
		l-9.5,0c-0.6,0.2-1.3,0.3-2,0.3h0c-0.7,0-1.3-0.1-1.9-0.3H44.4C42.9,100.2,41.6,100.3,41,100.3"/>
	<path class="st0" d="M61.8,3.1L63,6.9H67l-3.3,2.5l1.3,3.9l-2-1.4v2.4c0.2,0.2,0.5,0.4,0.7,0.8c0.6,0.2,1,0.5,1.2,0.9
		c0.4,0.6,0.4,1.5,0.2,2.2v0v0.2h0.1v1.8v9.4h1.1v1.8v7.5v1.8h-1.1v6.6v2.7v0.7h0.4c-0.2-0.8-0.3-1.7-0.3-2.5
		c0-6.8,5.5-12.3,12.3-12.3c6.7,0,12.2,5.4,12.3,12.1h0h0.6c0-0.1,0-0.2,0-0.3c0-1.1,0.9-2,2-2c0.5,0,1,0.2,1.4,0.6
		c0,0,0.1,0,0.1,0.1v-0.6V44h0.2v-0.2c-0.4-0.6-0.6-1.2-0.6-1.9c0-2,1.6-3.6,3.6-3.6c1.6,0,3,1.1,3.4,2.6c0,0-0.1,0-0.1,0
		c-0.6,0-1.1,0.5-1.1,1.1c0,0.6,0.5,1.1,1.1,1.1c0,0,0,0,0.1,0c-0.1,0.4-0.3,0.7-0.6,1v1.8V46c0.1,0.2,0.3,0.4,0.3,0.6h0.2v1.8v9.2
		c3.1,0.8,5.6,1.9,7.6,3.3l0.8,0.5v0.9v1.5c0.5,0.2,1.4,0.4,1.4,0.4l1.4,0.5c5.6,2.1,11.1,5.1,16.5,8.9l3.4,2.4l-4.1,0.7l-4.5,0.8
		l0,5l4.5,8.2l3.4,6.2l-5.9-3.9c-0.6-0.4-1.3-0.8-1.9-1.2l0,4.5l0,1.8l-1.8,0l-7.1,0l-0.4,0c-0.5,0.2-1,0.3-1.5,0.3
		c-0.2,0-0.4,0-0.6,0c-0.7,0-1.2-0.1-1.8-0.3h-0.5H95.1h-1.6c-0.8,0.2-1.6,0.3-2.6,0.3c0,0-0.1,0-0.1,0c-1,0-1.8-0.1-2.6-0.3l-1.6,0
		l-11.8,0l-1.2,0v0l-1.8,0l-7.4,0l-0.5,0c-0.5,0.2-1.1,0.3-1.7,0.3h0c-0.6,0-1.2-0.1-1.7-0.3h-1H45.9h-1.8v0
		c-1.4,0.5-2.6,0.5-3.2,0.5c-2.2,0-4.1-0.7-5.6-1.9v1.4h-1.8h-8h-1.8v0c-1,0.4-2.1,0.6-3.2,0.6c-0.1,0-0.2,0-0.3,0
		c-2.7-0.1-7.3-1.2-9.2-7c-0.5,0.3-1,0.6-1.5,1l-5.9,3.8L7,90.3l3.1-5.7c0-2.9,0.5-5.4,1.4-7.5l-4.3-0.7l-4.1-0.7l3.4-2.5
		c5-3.7,10.2-6.6,15.5-8.6c0,0,1.2-0.5,1.2-0.5l1.3-0.5v-0.9v-0.9l0.7-0.5c1.9-1.5,4.3-2.7,7.3-3.6v-9.2V48l-0.7,0.5l1.7-5.2
		L29.1,40h5.4l1.6-5l1.6,5h5.4l-4.4,3.3l0.2,0.8l0.3-0.2c0.1-0.1,0.2-0.3,0.4-0.4c1.1-1,2.3-1.4,3.5-1.4c3.1,0,6.6,2.5,10.3,5.1
		c1.4,1,2.9,2.1,4.4,3c0.2-0.1,0.4-0.1,0.7-0.2v-9.5h-1.1v-1.8v-7.5v-1.8h1.1v-9.4v-1.6c0,0,0,0,0-0.1c-0.5-0.9-0.2-1.9,0.2-2.6
		c0.2-0.3,0.6-0.7,1.3-0.9c0.2-0.3,0.3-0.5,0.5-0.7v-2.5l-2,1.4l1.3-3.9l-3.3-2.5h4.1L61.8,3.1 M61.8,0c-1.4,0-2.5,0.9-3,2.2
		l-0.5,1.6h-1.8c-1.3,0-2.5,0.9-3,2.1c-0.4,1.3,0,2.7,1.1,3.5l1.5,1.1l-0.6,1.8c-0.3,0.8-0.2,1.7,0.2,2.4c-0.7,1.4-0.8,3-0.3,4.5v1
		v7c-0.7,0.6-1.1,1.4-1.1,2.4v1.8v7.5v1.8c0,0.9,0.4,1.8,1.1,2.4v1.9c0,0-0.1-0.1-0.1-0.1c-3.1-2.2-6.1-4.3-9.1-5.2
		c0-0.1-0.1-0.3-0.1-0.4c-0.4-1.3-1.6-2.1-3-2.1H40L39.1,34c-0.4-1.3-1.6-2.2-3-2.2h0c-1.3,0-2.5,0.9-3,2.2l-0.9,2.9h-3.1
		c-1.3,0-2.5,0.9-3,2.1c-0.4,1.3,0,2.7,1.1,3.5l2.6,1.9l-1,3.1c-0.3,1-0.1,2.1,0.5,2.9v5.1c-2.4,0.9-4.4,2-6.1,3.4l-0.7,0.5
		c-0.6,0.5-1,1.2-1.1,2c0,0,0,0,0,0c-0.2,0.1-0.3,0.1-0.5,0.2c-0.1,0-0.2,0.1-0.2,0.1c-5.5,2.2-10.9,5.2-16.1,9l-3.4,2.5
		c-1,0.7-1.5,2-1.2,3.2c0.3,1.2,1.3,2.1,2.5,2.4l4.1,0.7l0.8,0.1c-0.3,1.3-0.4,2.7-0.5,4.2l-2.8,5L0.9,95c-0.7,1.3-0.4,2.8,0.6,3.8
		c0.6,0.5,1.4,0.8,2.1,0.8c0.6,0,1.2-0.2,1.7-0.5l4.5-2.9c2.3,3.5,5.9,5.5,10.4,5.7c0.1,0,0.3,0,0.4,0c1.3,0,2.5-0.2,3.6-0.5h1.4h8
		h1.8c0.4,0,0.8-0.1,1.2-0.2c1.4,0.5,2.9,0.8,4.4,0.8c0.7,0,2-0.1,3.6-0.5h1.3h13.6H60c0.7,0.2,1.4,0.3,2.1,0.3h0.1
		c0.8,0,1.5-0.1,2.2-0.3h0.1l7.4,0l1.8,0c0.1,0,0.3,0,0.4,0l0.8,0l11.8,0l1.2,0c0.9,0.2,1.8,0.3,2.9,0.3l0.2,0c1.1,0,2.1-0.1,3-0.3
		h1.2h14.2c0.7,0.2,1.5,0.3,2.3,0.3c0.3,0,0.5,0,0.8,0c0.6,0,1.2-0.1,1.8-0.3l7,0l1.8,0h0c0.8,0,1.6-0.3,2.2-0.9
		c0.6-0.6,0.9-1.4,0.9-2.2l0-0.5l3,2c0.5,0.3,1.1,0.5,1.7,0.5c0.8,0,1.5-0.3,2.1-0.8c1-1,1.3-2.5,0.6-3.8l-3.4-6.2l-4.1-7.5l0-1.6
		l1.9-0.3l4.1-0.7c1.2-0.2,2.2-1.2,2.5-2.4c0.3-1.2-0.2-2.5-1.2-3.2l-3.4-2.4c-5.5-4-11.3-7.2-17.2-9.3l-0.8-0.3v-0.2
		c0-1-0.5-2-1.3-2.6l-0.8-0.5c-1.8-1.2-3.8-2.2-6.2-3.1v-6.9v-1.8c0-0.6-0.2-1.2-0.5-1.7v0c0.2-0.3,0.3-0.6,0.4-0.9
		c0.2-0.7,0.2-1.4,0-2.1c0.2-0.6,0.3-1.4,0.1-2c-0.9-2.9-3.4-4.8-6.4-4.8c-3.1,0-5.7,2.1-6.5,4.9c-0.6-1.1-1.4-2-2.3-2.9
		c-2.9-2.9-6.7-4.5-10.8-4.5c-3,0-5.8,0.9-8.2,2.4v-3.7v-1.8c0-0.9-0.4-1.8-1.1-2.4v-7v-1.8c0-0.1,0-0.1,0-0.2
		c0.2-1.2,0-2.4-0.5-3.5c0.4-0.7,0.5-1.6,0.2-2.4l-0.6-1.8l1.5-1.1C70,8.6,70.4,7.2,70,5.9c-0.4-1.3-1.6-2.1-3-2.1h-1.8l-0.5-1.6
		C64.3,0.9,63.1,0,61.8,0L61.8,0z"/>
	<path class="st1" d="M123,82.7l0-5l4.5-0.8l4.1-0.7l-3.4-2.4c-5.3-3.9-10.9-6.9-16.5-8.9l-1.4-0.5c0,0-0.8-0.3-1.4-0.4v-1.5v-0.9
		l-0.8-0.5c-2-1.4-4.5-2.5-7.6-3.3v-9.2v-1.8h-0.2c-0.1-0.2-0.2-0.4-0.3-0.6v-0.3V44c0.2-0.3,0.4-0.7,0.6-1c0,0,0,0-0.1,0
		c-0.6,0-1.1-0.5-1.1-1.1s0.5-1.1,1.1-1.1c0,0,0.1,0,0.1,0c-0.4-1.5-1.8-2.6-3.4-2.6c-2,0-3.6,1.6-3.6,3.6c0,0.7,0.2,1.4,0.6,1.9V44
		h-0.2v1.8v0.6c0,0-0.1-0.1-0.1-0.1c-0.4-0.3-0.8-0.6-1.4-0.6c-1.1,0-2,0.9-2,2c0,0.1,0,0.2,0,0.3h-0.6h-0.1
		c-0.1-6.7-5.5-12.1-12.3-12.1c-6.8,0-12.3,5.5-12.3,12.3c0,0.9,0.1,1.7,0.3,2.5h-0.4v-0.7v-2.7v-6.6h1.1v-1.8v-7.5v-1.8h-1.1v-9.4
		v-1.8h-0.1v-0.2v0c0.3-0.7,0.2-1.5-0.2-2.2c-0.2-0.3-0.6-0.7-1.2-0.9c-0.2-0.4-0.4-0.6-0.7-0.8v-2.4l2,1.4l-1.3-3.9L67,6.9H63
		l-1.2-3.8l-1.2,3.8h-4.1l3.3,2.5l-1.3,3.9l2-1.4v2.5c-0.2,0.2-0.4,0.4-0.5,0.7c-0.7,0.1-1,0.5-1.3,0.9c-0.4,0.7-0.7,1.7-0.2,2.6
		c0,0,0,0,0,0.1v1.6v9.4h-1.1v1.8v7.5v1.8h1.1v9.5c-0.2,0-0.5,0.1-0.7,0.1c-1.5-0.9-3-2-4.4-3c-5.2-3.7-10-7.2-13.8-3.7
		c-0.1,0.1-0.3,0.3-0.4,0.4L39,44.1l-0.2-0.8l4.4-3.3h-5.4l-1.6-5l-1.6,5h-5.4l4.4,3.3l-1.7,5.2l0.7-0.5v0.6v9.2
		c-3,0.9-5.4,2.1-7.3,3.6l-0.7,0.5v0.9v0.9l-1.3,0.5c0,0-1.2,0.5-1.2,0.5c-5.3,2.1-10.5,5-15.5,8.6l-3.4,2.5l4.1,0.7l4.3,0.7
		c-0.9,2.1-1.3,4.6-1.4,7.5L7,90.3l-3.4,6.2l5.9-3.8c0.5-0.3,1-0.6,1.5-1c1.9,5.9,6.5,7,9.2,7c1.3,0,2.5-0.2,3.5-0.6v0h1.8h8h1.8
		v-1.4c1.5,1.2,3.4,1.9,5.6,1.9c0.6,0,1.8-0.1,3.2-0.5v0h1.8h13.6h1c0.5,0.2,1.1,0.3,1.7,0.3c0.6,0,1.2-0.1,1.7-0.3l0.5,0l7.4,0
		l1.8,0v0l1.2,0l11.8,0l1.6,0c0.8,0.2,1.6,0.3,2.6,0.3c1,0,1.9-0.1,2.7-0.3h1.6h14.3h0.5c0.7,0.3,1.4,0.4,2.4,0.3
		c0.6,0,1.1-0.1,1.5-0.3l0.4,0l7.1,0l1.8,0l0-1.8l0-4.5c0.7,0.4,1.3,0.8,1.9,1.2l5.9,3.9l-3.4-6.2L123,82.7z M34.5,46.5l1.6-1.2
		l0.3,0.2L34.5,46.5z M73,77.2h-1.2h-7.2h-0.2c-1.5-0.6-3.3-0.5-4.5,0c-0.4,0.1-0.9,0.4-1.3,0.7c-0.9-0.7-1.9-1.1-3.1-1.1
		c-0.3,0-1.3,0-2.3,0.4h-0.4h-4.2c0.1-0.4,0.1-0.9,0-1.4c4.8-0.4,10.6-0.6,17.8-0.6c2.4,0,4.6,0,6.6,0V77.2z M93.3,77.3h-8.6l0-1.6
		c3.2,0.2,6.1,0.5,8.6,1V77.3z"/>
	<path class="st2" d="M127.1,75.1c-17.8-12.9-31.9-11.7-31.9-11.7l0.1,16.3c0,0,16,2.5,30.6,12l-8.2-14.9L127.1,75.1z"/>
	<path class="st3" d="M127.1,75.1c-17.8-12.9-31.9-11.7-31.9-11.7l0.1,16.3c0,0,16,2.5,30.6,12l-8.2-14.9L127.1,75.1z"/>
	<path class="st4" d="M71.6,48.2c0-3.2,2.6-5.8,5.8-5.8c3.2,0,5.8,2.6,5.8,5.8c0,3.2-2.6,5.8-5.8,5.8C74.2,54,71.6,51.4,71.6,48.2z"
		/>
	<polygon class="st5" points="66.8,48.5 74,46.2 74.4,38.6 78.9,44.8 86.3,42.5 81.3,48.2 85.6,53.9 78.5,51.8 73.6,57.6 73.9,50.4 
			"/>
	<path class="st6" d="M67.9,47.9c0-5.4,4.3-9.7,9.7-9.7c5.4,0,9.7,4.3,9.7,9.7c0,5.4-4.3,9.7-9.7,9.7C72.2,57.6,67.9,53.3,67.9,47.9
		z"/>
	<rect x="34.2" y="48.6" class="st7" width="3.9" height="12.7"/>
	<rect x="94.9" y="48.4" class="st7" width="3.9" height="12.7"/>
	<path class="st7" d="M95.5,60c-0.2,0,0-11.5-0.2-11.5c-0.4,0.1-1.3,0.7-1.3,1c-0.2-0.1-0.5-0.1-0.7-0.1c0-0.2,0-0.5-0.2-0.6h-0.6
		c-0.1-0.2-0.1-0.4-0.1-0.7c0-0.1-0.1-0.4-0.2-0.5c0,0.1,0.1,0.4,0,0.5c-0.2,0.8-0.7,1.5-1.6,1.5c-0.1,0.2,0,0.2,0,0.2
		c-0.3,0.2-0.7,0.2-1,0.2c-0.1,0,0,0.1,0,0.2c-0.6-0.2-0.7-0.2-1.3-0.2c0-0.1,0-0.2-0.1-0.2c-0.3-0.2-0.6-0.2-0.8-0.2v0.5
		c0,0-0.3,0-0.4,0.2c-0.1,0.1,0,0.2,0,0.2C87,51,86.7,51,86.6,51.4c-0.2-0.2-0.2,0.6-0.5,0.8c-0.2,0.1-0.8,0.2-1,0.2
		c-0.2,0.1-0.2-1-0.4-1v0.2c-0.6,0.1-0.9-0.2-1.4,0c-0.2,0-0.2,0.3-0.6,0.4c-0.3,0-0.6,0.1-0.8,0c-0.4-0.1-0.7-0.6-0.7-0.9
		c0-0.1-0.1-0.2-0.2-0.2c-0.2,0-0.3,0-0.4,0.2c0,0,0.1,0.2,0,0.3c0,0-0.3,0-0.4,0.1v0.3c0,0-0.2-0.2-0.2-0.2
		c-0.4,0.2-0.3,0.4-0.6,0.6c0,0-0.2-0.1-0.2,0h-0.1c-0.2,0.1-0.3,0-0.4,0c-0.1,0-0.1,0.1-0.1,0.1c0-0.1,0-0.1-0.2-0.1
		c-0.1-0.1-0.1,0-0.2,0c0-0.1,0-0.2-0.1-0.3c-0.2,0-0.2,0-0.3,0.2c-0.2-0.2-0.2-0.2-0.4-0.2c-0.1,0,0,0.2-0.1,0.3
		c-0.3-0.2-0.5,0-0.8-0.3c-0.3-0.2-0.3-0.6-0.6-0.7C76,51,75.7,51,75.5,51c0,0.2-0.1,0.3-0.1,0.3c0,0.1-0.2,0-0.3,0
		c-0.1,0.1,0,0.2,0,0.2c-0.2,0.2-0.3-0.1-0.4,0V52c0-0.1-0.1-0.1-0.1-0.1c-0.1,0,0-0.1,0-0.1c-0.6-0.2-0.7,0.1-1,0.1
		c-0.2,0-0.6-0.1-0.8,0c-0.1,0-0.1,0.2-0.2,0.3c-0.1,0,0,0.1,0,0.3c-0.1,0-0.3-0.2-0.3,0c-0.1,0,0,0.1,0,0.2h-0.6
		c-0.2,0-0.3-0.2-0.4-0.2c-0.2-0.2-0.2-0.3-0.3-0.3c0-0.1-0.1,0-0.3,0c0-0.1,1.9,1.7,1.8,1.4c-0.1-0.1-0.2-0.2-0.3-0.5
		c0-0.2,0-0.4-0.3-0.6c-0.1,0-0.2,0.1-0.3,0h-0.1c-0.4-0.2-2.2,1.7-2.4,2.1c-0.1-0.3-0.3-0.6-0.5-0.6c-0.2-0.1-0.3,0-0.5,0
		c-0.2,0-0.3-0.1-0.5,0c-0.2,0.1-0.2,0.2-0.3,0.3c-0.2,0.1-0.3-0.1-0.5-0.1c-0.2,0-0.8-1.9-0.8-1.7c0,0.1-0.2,0-0.2,0
		c-0.1,0.2,0.2,0.2,0.2,0.2c0.2,0,0.6,1.8,0.6,1.8h0.3c-0.4,0-0.9-2.1-1.2-2.1c-0.2,0-0.4,0.2-0.5,0.1c-0.3-0.1-0.3-0.3-0.4-0.3
		c-0.5-0.2-0.8,0-1.3,0C63.4,52.2,63.2,52,63,52c-0.2-0.2-0.4,0.2-0.8,0c-0.1-0.2-0.1-0.2-0.3-0.4c-0.2,0-0.3,0-0.5,0.2
		c-0.4,0-0.6,0-1,0.2c-0.3,0-0.6-0.2-1,0c-0.1,0-0.1,0.2-0.3,0.2c-0.1,0-0.3-0.2-0.4,0c-0.1,0-0.2,0.2-0.3,0.2
		c-0.4,0.1,0.7-0.5,0.4-0.5c-0.6,0-0.6,1.4-1.4,1.4c-0.7,0-1.1,0.1-1.8,0.1h-0.7c0,0,0.2-0.1,0-0.1c-0.1,0.1-0.2,0.3-0.4,0.4
		c-0.2,0-0.5-0.1-0.8,0c-0.1,0-0.5-1.4-0.6-1.4c-0.2,0.2-2.2-1.2-2.5-1.4c-0.2,0-0.2-0.2-0.7-0.2c-0.4,0-0.5,0.9-0.8,1
		c-0.4,0-0.7-1-0.9-1c-0.2,0-0.2,0.1-0.3,0c-0.2,0-0.2-0.2-0.5-0.2c-0.1,0.2-0.1,0.2-0.3,0.2c-0.1,0-0.4-0.1-0.6-0.1
		c-0.2,0.1,0,0.2-0.2,0.2h-0.4c-0.3,0.2-0.2,0.4-0.5,0.6h0.2c-0.2,0-0.4,0-0.6-0.2v-0.6c-0.1-0.2-0.2-0.2-0.2-0.2
		c-0.2,0-0.2-0.2-0.2-0.2c-0.2-0.1-0.3,0.2-0.6,0.2h-0.3c-0.2,0.2,0,0.2,0,0.4c-0.3,0-0.5,0-0.6,0.2v0.5c-0.7-0.2-1.2,0.2-2.2,0.2
		c0,0.2,0,0.2-0.1,0.4c-0.1,0,0.1-0.2,0.1-0.2c-0.3,0.2-0.3,0.3-0.6,0.3c0-0.1,0.1-0.3,0.1-0.5c-0.1-0.1-0.2,0-0.3-0.1
		c0-0.2,0.2-0.3,0.2-0.4c0-0.2-0.2-0.2-0.2-0.2c0-0.2,0-0.4-0.1-0.4h-0.4c0-0.2,0.1-0.4,0-0.6h-0.2c-0.1-0.1,0.2-0.3-0.1-0.3
		c-0.1-0.1-0.3,0-0.5,0c0-0.2,0-0.4-0.2-0.6c-0.2,0-0.3,0-0.3-0.3c-0.2,0.1-1.4,11-1.4,11H95.5z"/>
	<path class="st8" d="M95.5,60c-0.2,0,0-11.5-0.2-11.5c-0.4,0.1-1.3,0.7-1.3,1c-0.2-0.1-0.5-0.1-0.7-0.1c0-0.2,0-0.5-0.2-0.6h-0.6
		c-0.1-0.2-0.1-0.4-0.1-0.7c0-0.1-0.1-0.4-0.2-0.5c0,0.1,0.1,0.4,0,0.5c-0.2,0.8-0.7,1.5-1.6,1.5c-0.1,0.2,0,0.2,0,0.2
		c-0.3,0.2-0.7,0.2-1,0.2c-0.1,0,0,0.1,0,0.2c-0.6-0.2-0.7-0.2-1.3-0.2c0-0.1,0-0.2-0.1-0.2c-0.3-0.2-0.6-0.2-0.8-0.2v0.5
		c0,0-0.3,0-0.4,0.2c-0.1,0.1,0,0.2,0,0.2C87,51,86.7,51,86.6,51.4c-0.2-0.2-0.2,0.6-0.5,0.8c-0.2,0.1-0.8,0.2-1,0.2
		c-0.2,0.1-0.2-1-0.4-1v0.2c-0.6,0.1-0.9-0.2-1.4,0c-0.2,0-0.2,0.3-0.6,0.4c-0.3,0-0.6,0.1-0.8,0c-0.4-0.1-0.7-0.6-0.7-0.9
		c0-0.1-0.1-0.2-0.2-0.2c-0.2,0-0.3,0-0.4,0.2c0,0,0.1,0.2,0,0.3c0,0-0.3,0-0.4,0.1v0.3c0,0-0.2-0.2-0.2-0.2
		c-0.4,0.2-0.3,0.4-0.6,0.6c0,0-0.2-0.1-0.2,0h-0.1c-0.2,0.1-0.3,0-0.4,0c-0.1,0-0.1,0.1-0.1,0.1c0-0.1,0-0.1-0.2-0.1
		c-0.1-0.1-0.1,0-0.2,0c0-0.1,0-0.2-0.1-0.3c-0.2,0-0.2,0-0.3,0.2c-0.2-0.2-0.2-0.2-0.4-0.2c-0.1,0,0,0.2-0.1,0.3
		c-0.3-0.2-0.5,0-0.8-0.3c-0.3-0.2-0.3-0.6-0.6-0.7C76,51,75.7,51,75.5,51c0,0.2-0.1,0.3-0.1,0.3c0,0.1-0.2,0-0.3,0
		c-0.1,0.1,0,0.2,0,0.2c-0.2,0.2-0.3-0.1-0.4,0V52c0-0.1-0.1-0.1-0.1-0.1c-0.1,0,0-0.1,0-0.1c-0.6-0.2-0.7,0.1-1,0.1
		c-0.2,0-0.6-0.1-0.8,0c-0.1,0-0.1,0.2-0.2,0.3c-0.1,0,0,0.1,0,0.3c-0.1,0-0.3-0.2-0.3,0c-0.1,0,0,0.1,0,0.2h-0.6
		c-0.2,0-0.3-0.2-0.4-0.2c-0.2-0.2-0.2-0.3-0.3-0.3c0-0.1-0.1,0-0.3,0c0-0.1,1.9,1.7,1.8,1.4c-0.1-0.1-0.2-0.2-0.3-0.5
		c0-0.2,0-0.4-0.3-0.6c-0.1,0-0.2,0.1-0.3,0h-0.1c-0.4-0.2-2.2,1.7-2.4,2.1c-0.1-0.3-0.3-0.6-0.5-0.6c-0.2-0.1-0.3,0-0.5,0
		c-0.2,0-0.3-0.1-0.5,0c-0.2,0.1-0.2,0.2-0.3,0.3c-0.2,0.1-0.3-0.1-0.5-0.1c-0.2,0-0.8-1.9-0.8-1.7c0,0.1-0.2,0-0.2,0
		c-0.1,0.2,0.2,0.2,0.2,0.2c0.2,0,0.6,1.8,0.6,1.8h0.3c-0.4,0-0.9-2.1-1.2-2.1c-0.2,0-0.4,0.2-0.5,0.1c-0.3-0.1-0.3-0.3-0.4-0.3
		c-0.5-0.2-0.8,0-1.3,0C63.4,52.2,63.2,52,63,52c-0.2-0.2-0.4,0.2-0.8,0c-0.1-0.2-0.1-0.2-0.3-0.4c-0.2,0-0.3,0-0.5,0.2
		c-0.4,0-0.6,0-1,0.2c-0.3,0-0.6-0.2-1,0c-0.1,0-0.1,0.2-0.3,0.2c-0.1,0-0.3-0.2-0.4,0c-0.1,0-0.2,0.2-0.3,0.2
		c-0.4,0.1,0.7-0.5,0.4-0.5c-0.6,0-0.6,1.4-1.4,1.4c-0.7,0-1.1,0.1-1.8,0.1h-0.7c0,0,0.2-0.1,0-0.1c-0.1,0.1-0.2,0.3-0.4,0.4
		c-0.2,0-0.5-0.1-0.8,0c-0.1,0-0.5-1.4-0.6-1.4c-0.2,0.2-2.2-1.2-2.5-1.4c-0.2,0-0.2-0.2-0.7-0.2c-0.4,0-0.5,0.9-0.8,1
		c-0.4,0-0.7-1-0.9-1c-0.2,0-0.2,0.1-0.3,0c-0.2,0-0.2-0.2-0.5-0.2c-0.1,0.2-0.1,0.2-0.3,0.2c-0.1,0-0.4-0.1-0.6-0.1
		c-0.2,0.1,0,0.2-0.2,0.2h-0.4c-0.3,0.2-0.2,0.4-0.5,0.6h0.2c-0.2,0-0.4,0-0.6-0.2v-0.6c-0.1-0.2-0.2-0.2-0.2-0.2
		c-0.2,0-0.2-0.2-0.2-0.2c-0.2-0.1-0.3,0.2-0.6,0.2h-0.3c-0.2,0.2,0,0.2,0,0.4c-0.3,0-0.5,0-0.6,0.2v0.5c-0.7-0.2-1.2,0.2-2.2,0.2
		c0,0.2,0,0.2-0.1,0.4c-0.1,0,0.1-0.2,0.1-0.2c-0.3,0.2-0.3,0.3-0.6,0.3c0-0.1,0.1-0.3,0.1-0.5c-0.1-0.1-0.2,0-0.3-0.1
		c0-0.2,0.2-0.3,0.2-0.4c0-0.2-0.2-0.2-0.2-0.2c0-0.2,0-0.4-0.1-0.4h-0.4c0-0.2,0.1-0.4,0-0.6h-0.2c-0.1-0.1,0.2-0.3-0.1-0.3
		c-0.1-0.1-0.3,0-0.5,0c0-0.2,0-0.4-0.2-0.6c-0.2,0-0.3,0-0.3-0.3c-0.2,0.1-1.4,11-1.4,11H95.5z"/>
	<path class="st2" d="M26.2,62.7c7.4-5.9,22.3-5.4,40.3-5.4c17.1,0,32.7-0.6,40.6,5v17.2c-7.9-5.4-23.6-6.1-40.7-6.1
		c-18.1,0-32.7,1.1-40.2,7V62.7z"/>
	<path class="st3" d="M26.2,62.7c7.4-5.9,22.3-5.4,40.3-5.4c17.1,0,32.7-0.6,40.6,5v17.2c-7.9-5.4-23.6-6.1-40.7-6.1
		c-18.1,0-32.7,1.1-40.2,7V62.7z"/>
	<path class="st2" d="M7.5,74.7c17.6-12.9,31.7-11.8,31.7-11.8l-0.1,16.3c0,0-15.9,2.4-30.6,11.9l8.2-14.9L7.5,74.7z"/>
	<path class="st3" d="M7.5,74.7c17.6-12.9,31.7-11.8,31.7-11.8l-0.1,16.3c0,0-15.9,2.4-30.6,11.9l8.2-14.9L7.5,74.7z"/>
	<polygon class="st9" points="107.2,65.1 109.9,65.9 109.8,79.2 107.1,81.3 	"/>
	<path class="st9" d="M27,79.7c0,0,2.8-1.7,4.7-2.5c2.8-1.2,7.4-2.1,7.4-2.1v4L27,79.7z"/>
	<path class="st7" d="M67.2,63.2c0,0-2.8,2.4-4.1,4.1c-1.4,1.8-2.8,4.1-2.8,4.1s-1.5-0.6-2.5-0.9c-1-0.3-2.6-0.4-2.6-0.4
		s0.2-3,0.2-5c0-2.6-0.2-6.6-0.2-6.6s1.6,0.8,2.6,1.2c1.2,0.2,3,0.5,3,0.5s-0.4,1.7-0.6,2.6c-0.2,1.2-0.6,3-0.6,3s1-1.4,1.6-2.6
		c0.5-0.8,1.3-2.2,1.3-2.2s1,0.8,1.8,1C65.5,62.5,67.2,63.2,67.2,63.2"/>
	<path class="st10" d="M67.2,63.2c0,0-2.8,2.4-4.1,4.1c-1.4,1.8-2.8,4.1-2.8,4.1s-1.5-0.6-2.5-0.9c-1-0.3-2.6-0.4-2.6-0.4
		s0.2-3,0.2-5c0-2.6-0.2-6.6-0.2-6.6s1.6,0.8,2.6,1.2c1.2,0.2,3,0.5,3,0.5s-0.4,1.7-0.6,2.6c-0.2,1.2-0.6,3-0.6,3s1-1.4,1.6-2.6
		c0.5-0.8,1.3-2.2,1.3-2.2s1,0.8,1.8,1C65.5,62.5,67.2,63.2,67.2,63.2z"/>
	<path class="st7" d="M98,62.2c0,0-0.4,3.3-0.8,5.3c-0.4,2.1-1.3,5-1.3,5l5,1.2c0,0,0.1-3.5,0.4-5.8c0.3-1.9,1.1-4.9,1.1-4.9
		L98,62.2z"/>
	<path class="st10" d="M98,62.2c0,0-0.4,3.3-0.8,5.3c-0.4,2.1-1.3,5-1.3,5l5,1.2c0,0,0.1-3.5,0.4-5.8c0.3-1.9,1.1-4.9,1.1-4.9
		L98,62.2z"/>
	<path class="st7" d="M83.8,60c0,0,0.8,3.2,1.1,5.4c0.4,2.2,0.6,5.8,0.6,5.8s2.1-0.6,3.5-0.7c1.4-0.2,3.7-0.1,3.7-0.1s0.1-1.1,0.1-2
		c0.2-0.8,1-2.3,1-2.3s-1.9,0.4-3,0.4h-1.7c0,0-0.5-2.2-0.7-3.6c-0.1-1.4,0.1-4,0.1-4s-1.2,0.6-2.2,0.8C85.3,59.8,83.8,60,83.8,60"
		/>
	<path class="st10" d="M83.8,60c0,0,0.8,3.2,1.1,5.4c0.4,2.2,0.6,5.8,0.6,5.8s2.1-0.6,3.5-0.7c1.4-0.2,3.7-0.1,3.7-0.1
		s0.1-1.1,0.1-2c0.2-0.8,1-2.3,1-2.3s-1.9,0.4-3,0.4h-1.7c0,0-0.5-2.2-0.7-3.6c-0.1-1.4,0.1-4,0.1-4s-1.2,0.6-2.2,0.8
		C85.3,59.8,83.8,60,83.8,60z"/>
	<path class="st7" d="M45.7,60c0,0,0.2,3.4,0.2,5.4c0,2.1-0.2,5-0.2,5l5,0.3c0,0-0.5-3.5-0.6-5.8c-0.1-2,0.1-5,0.1-5H45.7z"/>
	<path class="st10" d="M45.7,60c0,0,0.2,3.4,0.2,5.4c0,2.1-0.2,5-0.2,5l5,0.3c0,0-0.5-3.5-0.6-5.8c-0.1-2,0.1-5,0.1-5H45.7z"/>
	<path class="st7" d="M69.3,65.3c0-3,2.9-5.4,6.4-5.4c3.6,0,6.4,2.4,6.4,5.4c0,3-2.9,5.4-6.4,5.4C72.2,70.7,69.3,68.3,69.3,65.3"/>
	<path class="st10" d="M69.3,65.3c0-3,2.9-5.4,6.4-5.4c3.6,0,6.4,2.4,6.4,5.4c0,3-2.9,5.4-6.4,5.4C72.2,70.7,69.3,68.3,69.3,65.3z"
		/>
	<path class="st2" d="M73.2,65.7c0-0.9,0.8-1.6,1.8-1.6c1,0,1.8,0.7,1.8,1.6c0,0.9-0.8,1.6-1.8,1.6C74,67.3,73.2,66.6,73.2,65.7"/>
	<path class="st10" d="M73.2,65.7c0-0.9,0.8-1.6,1.8-1.6c1,0,1.8,0.7,1.8,1.6c0,0.9-0.8,1.6-1.8,1.6C74,67.3,73.2,66.6,73.2,65.7z"
		/>
	<polygon class="st9" points="26.2,64.9 23.7,65.8 23.7,73.7 26.2,75.3 	"/>
	<path class="st7" d="M29.6,62.5c0,0,0.3,1.5,0.5,2.6c0.2,1,0.3,3,0.3,3l3.8-1.4c0,0,0.7,2.5,1,3.8c0.4,1.6,0.1,2.5,0.1,2.5l5.2-1.4
		c0,0-0.7-1.1-1.4-2.7c-0.4-1.2-1-3.2-1-3.2s0.9-0.4,1.4-0.6c0.6-0.3,1.6-0.6,1.6-0.6s-0.6-1.3-1-2.2c-0.3-0.8-0.6-2.1-0.6-2.1
		s-2.8,1-4.9,1.5C33,62.1,29.6,62.5,29.6,62.5"/>
	<path class="st10" d="M29.6,62.5c0,0,0.3,1.5,0.5,2.6c0.2,1,0.3,3,0.3,3l3.8-1.4c0,0,0.7,2.5,1,3.8c0.4,1.6,0.1,2.5,0.1,2.5
		l5.2-1.4c0,0-0.7-1.1-1.4-2.7c-0.4-1.2-1-3.2-1-3.2s0.9-0.4,1.4-0.6c0.6-0.3,1.6-0.6,1.6-0.6s-0.6-1.3-1-2.2
		c-0.3-0.8-0.6-2.1-0.6-2.1s-2.8,1-4.9,1.5C33,62.1,29.6,62.5,29.6,62.5z"/>
	<polygon class="st11" points="69.2,48.5 75,46.5 75.2,40.9 78.5,45.6 84.1,43.7 80.4,48.2 83.7,52.6 78.1,50.8 74.4,55.4 
		74.8,49.8 	"/>
	<rect x="60.3" y="20.1" class="st7" width="3.2" height="34.1"/>
	<rect x="60.3" y="20.1" class="st11" width="3.2" height="34.1"/>
	<rect x="60.3" y="18.1" class="st7" width="3" height="1.4"/>
	<rect x="60.3" y="18.1" class="st11" width="3" height="1.4"/>
	<path class="st5" d="M59.5,19.7H64 M59.5,18H64"/>
	<line class="st11" x1="61.8" y1="8.9" x2="61.8" y2="22"/>
	<path class="st7" d="M60.2,17.7h3c0.4,0,0.4-0.6,0.2-0.9c-0.2-0.3-0.6,0-0.8-0.2c-0.5-0.1-0.3-1-0.8-1c-0.5,0-0.3,0.9-0.8,1
		c-0.2,0.3-0.7-0.1-0.9,0.2C59.9,17.1,59.9,17.7,60.2,17.7"/>
	<path class="st11" d="M60.2,17.7h3c0.4,0,0.4-0.6,0.2-0.9c-0.2-0.3-0.6,0-0.8-0.2c-0.5-0.1-0.3-1-0.8-1c-0.5,0-0.3,0.9-0.8,1
		c-0.2,0.3-0.7-0.1-0.9,0.2C59.9,17.1,59.9,17.7,60.2,17.7z"/>
	<path class="st12" d="M62.8,20.4v33.6 M60.7,20.4v34.3"/>
	<rect x="59.2" y="31.3" class="st7" width="5.3" height="7.5"/>
	<path class="st12" d="M59.5,37.7H64 M59.4,32.5H64"/>
	<path class="st13" d="M64,32.1v6.5 M63.5,32.1v6.5 M63.1,32.1v6.5 M62.8,32.1v6.5 M62.3,32.1v6.5 M61.9,32.1v6.5 M61.5,32.1v6.5
		 M61,32.1v6.5 M60.6,32.1v6.5 M60.2,31.9v6.5 M59.9,31.7v6.6"/>
	<line class="st14" x1="60.4" y1="18.4" x2="63.1" y2="18.4"/>
	<path class="st15" d="M43.1,53c-2-2.6-4.3-6.2-2.2-8.2c4.1-3.8,11.8,5.4,19.4,8.8"/>
	<path class="st7" d="M44.7,51.9l0.2-7.1L44.7,51.9z"/>
	<path class="st11" d="M44.7,51.9l0.2-7.1L44.7,51.9z"/>
	<path class="st7" d="M49.1,52.5l0.6-5.2L49.1,52.5z"/>
	<path class="st11" d="M49.1,52.5l0.6-5.2L49.1,52.5z"/>
	<rect x="95.7" y="45.8" class="st7" width="2.6" height="2.8"/>
	<rect x="95.9" y="44.1" class="st7" width="1.8" height="1.9"/>
	<rect x="34.9" y="46" class="st7" width="2.6" height="2.8"/>
	<rect x="34.9" y="46" class="st16" width="2.6" height="2.8"/>
	<rect x="35.3" y="44.3" class="st7" width="1.8" height="1.9"/>
	<rect x="35.3" y="44.3" class="st16" width="1.8" height="1.9"/>
	<path class="st8" d="M96.6,42.9v1.8 M36.1,42.5v3.3"/>
	<path class="st7" d="M92.2,48.2c0-0.3,0.2-0.5,0.5-0.5c0.3,0,0.5,0.2,0.5,0.5c0,0.3-0.2,0.5-0.5,0.5C92.4,48.7,92.2,48.5,92.2,48.2
		"/>
	<path class="st8" d="M92.2,48.2c0-0.3,0.2-0.5,0.5-0.5c0.3,0,0.5,0.2,0.5,0.5c0,0.3-0.2,0.5-0.5,0.5C92.4,48.7,92.2,48.5,92.2,48.2
		z"/>
	<path class="st0" d="M36.5,51.8c0-0.1,0.1-0.2,0.3-0.2c0.2,0,0.3,0.1,0.3,0.2c0,0.1-0.1,0.2-0.3,0.2C36.6,52,36.5,51.9,36.5,51.8"
		/>
	<path class="st0" d="M35.7,50.2c0-0.2,0.1-0.3,0.2-0.3c0.1,0,0.2,0.1,0.2,0.3c0,0.2-0.1,0.3-0.2,0.3C35.8,50.5,35.7,50.3,35.7,50.2
		"/>
	<path class="st0" d="M38.6,51.1c0-0.2,0.1-0.4,0.2-0.4c0.1,0,0.2,0.2,0.2,0.4c0,0.2-0.1,0.4-0.2,0.4C38.6,51.4,38.6,51.3,38.6,51.1
		"/>
	<path class="st0" d="M46.7,51.8c0-0.1,0.1-0.2,0.2-0.2c0.1,0,0.2,0.1,0.2,0.2c0,0.1-0.1,0.2-0.2,0.2C46.7,52,46.7,51.9,46.7,51.8"
		/>
	<path class="st0" d="M42.4,54.4c0-0.1,0.1-0.2,0.2-0.2c0.1,0,0.2,0.1,0.2,0.2c0,0.1-0.1,0.2-0.2,0.2C42.5,54.6,42.4,54.5,42.4,54.4
		"/>
	<path class="st0" d="M61.9,50.8c0-0.3,0.1-0.5,0.3-0.5c0.2,0,0.3,0.2,0.3,0.5s-0.1,0.5-0.3,0.5C62,51.3,61.9,51.1,61.9,50.8"/>
	<path class="st0" d="M60.7,43c0-0.2,0.2-0.4,0.4-0.4c0.2,0,0.4,0.2,0.4,0.4c0,0.2-0.2,0.4-0.4,0.4C60.9,43.4,60.7,43.2,60.7,43"/>
	<path class="st0" d="M61.6,27.3c0-0.2,0.1-0.3,0.2-0.3c0.1,0,0.2,0.1,0.2,0.3s-0.1,0.3-0.2,0.3C61.7,27.6,61.6,27.5,61.6,27.3"/>
	<path class="st0" d="M62.9,34.4c0-0.2,0.1-0.4,0.3-0.4c0.2,0,0.3,0.2,0.3,0.4c0,0.2-0.1,0.4-0.3,0.4C63.1,34.7,62.9,34.6,62.9,34.4
		"/>
	<path class="st17" d="M62.9,34.4c0-0.2,0.1-0.4,0.3-0.4c0.2,0,0.3,0.2,0.3,0.4c0,0.2-0.1,0.4-0.3,0.4
		C63.1,34.7,62.9,34.6,62.9,34.4z"/>
	<path class="st0" d="M59.6,35.7c0-0.2,0.1-0.3,0.3-0.3c0.2,0,0.3,0.1,0.3,0.3S60.1,36,59.9,36C59.7,36,59.6,35.9,59.6,35.7"/>
	<path class="st0" d="M62.6,36c0-0.3,0.2-0.5,0.5-0.5c0.3,0,0.5,0.2,0.5,0.5c0,0.3-0.2,0.5-0.5,0.5C62.8,36.5,62.6,36.3,62.6,36"/>
	<path class="st0" d="M70.7,41.2c0-0.4,0.3-0.7,0.6-0.7c0.4,0,0.6,0.3,0.6,0.7c0,0.4-0.3,0.7-0.6,0.7C71,41.9,70.7,41.6,70.7,41.2"
		/>
	<path class="st0" d="M77.2,42.7c0-0.3,0.1-0.5,0.2-0.5c0.1,0,0.2,0.2,0.2,0.5s-0.1,0.5-0.2,0.5C77.3,43.2,77.2,43,77.2,42.7"/>
	<path class="st0" d="M79.3,38.9c0-0.2,0.1-0.4,0.2-0.4c0.1,0,0.2,0.2,0.2,0.4c0,0.2-0.1,0.4-0.2,0.4C79.4,39.3,79.3,39.1,79.3,38.9
		"/>
	<path class="st0" d="M82,40.3c0-0.1,0.1-0.2,0.3-0.2c0.2,0,0.3,0.1,0.3,0.2c0,0.1-0.1,0.2-0.3,0.2C82.1,40.6,82,40.4,82,40.3"/>
	<path class="st0" d="M86,45.7c0-0.2,0.1-0.3,0.2-0.3c0.1,0,0.2,0.1,0.2,0.3c0,0.2-0.1,0.3-0.2,0.3C86.1,46,86,45.9,86,45.7"/>
	<path class="st0" d="M87.6,47c0-0.2,0.2-0.4,0.4-0.4c0.2,0,0.4,0.2,0.4,0.4c0,0.2-0.2,0.4-0.4,0.4C87.8,47.4,87.6,47.2,87.6,47"/>
	<path class="st0" d="M67.4,45.3c0-0.2,0.1-0.4,0.2-0.4c0.1,0,0.2,0.2,0.2,0.4c0,0.2-0.1,0.4-0.2,0.4C67.5,45.7,67.4,45.5,67.4,45.3
		"/>
	<path class="st0" d="M68.6,43.2c0-0.2,0.1-0.4,0.3-0.4c0.2,0,0.3,0.2,0.3,0.4c0,0.2-0.1,0.4-0.3,0.4C68.8,43.7,68.6,43.5,68.6,43.2
		"/>
	<path class="st0" d="M69.1,53.7c0-0.3,0.2-0.5,0.5-0.5c0.3,0,0.5,0.2,0.5,0.5c0,0.3-0.2,0.5-0.5,0.5C69.4,54.1,69.1,53.9,69.1,53.7
		"/>
	<path class="st0" d="M72.9,53.7c0-0.2,0.1-0.3,0.2-0.3c0.1,0,0.2,0.1,0.2,0.3c0,0.2-0.1,0.3-0.2,0.3C73,54,72.9,53.9,72.9,53.7"/>
	<path class="st0" d="M77.5,53.7c0-0.2,0.1-0.3,0.2-0.3c0.1,0,0.2,0.1,0.2,0.3c0,0.2-0.1,0.3-0.2,0.3C77.6,54,77.5,53.9,77.5,53.7"
		/>
	<path class="st0" d="M86.4,53.1c0-0.2,0.2-0.4,0.4-0.4c0.2,0,0.4,0.2,0.4,0.4c0,0.2-0.2,0.4-0.4,0.4C86.6,53.4,86.4,53.3,86.4,53.1
		"/>
	<path class="st0" d="M89.3,52.3c0-0.2,0.2-0.4,0.4-0.4c0.2,0,0.4,0.2,0.4,0.4c0,0.2-0.2,0.4-0.4,0.4C89.4,52.7,89.3,52.5,89.3,52.3
		"/>
	<path class="st0" d="M93.1,51.2c0-0.3,0.2-0.5,0.5-0.5c0.3,0,0.5,0.2,0.5,0.5c0,0.3-0.2,0.5-0.5,0.5C93.3,51.8,93.1,51.5,93.1,51.2
		"/>
	<path class="st0" d="M92.5,49.3c0-0.2,0.2-0.4,0.4-0.4c0.2,0,0.4,0.2,0.4,0.4s-0.2,0.4-0.4,0.4C92.6,49.8,92.5,49.6,92.5,49.3"/>
	<path class="st0" d="M95.1,50.8c0-0.2,0.1-0.3,0.3-0.3c0.2,0,0.3,0.1,0.3,0.3c0,0.2-0.1,0.3-0.3,0.3C95.2,51,95.1,50.9,95.1,50.8"
		/>
	<path class="st0" d="M78.6,54.5c0-0.2,0.2-0.4,0.4-0.4c0.2,0,0.4,0.2,0.4,0.4c0,0.2-0.2,0.4-0.4,0.4C78.8,54.9,78.6,54.7,78.6,54.5
		"/>
	<path class="st0" d="M56.4,54.9c0-0.2,0.2-0.3,0.4-0.3c0.2,0,0.4,0.1,0.4,0.3c0,0.2-0.2,0.3-0.4,0.3C56.6,55.2,56.4,55.1,56.4,54.9
		"/>
	<path class="st0" d="M58.9,53.4c0-0.3,0.2-0.6,0.5-0.6c0.3,0,0.5,0.3,0.5,0.6S59.7,54,59.4,54C59.1,54,58.9,53.8,58.9,53.4"/>
	<path class="st0" d="M51.5,54.3c0-0.1,0.2-0.2,0.4-0.2c0.2,0,0.4,0.1,0.4,0.2c0,0.1-0.2,0.2-0.4,0.2C51.7,54.5,51.5,54.4,51.5,54.3
		"/>
	<path class="st0" d="M50.1,53.6c0-0.2,0.1-0.4,0.3-0.4c0.2,0,0.3,0.2,0.3,0.4c0,0.2-0.1,0.4-0.3,0.4C50.2,54,50.1,53.9,50.1,53.6"
		/>
	<path class="st0" d="M47.6,54.9c0-0.3,0.3-0.5,0.6-0.5c0.4,0,0.6,0.2,0.6,0.5c0,0.3-0.3,0.5-0.6,0.5C47.9,55.3,47.6,55.1,47.6,54.9
		"/>
	<path class="st0" d="M93.2,54.6c0-0.3,0.2-0.6,0.5-0.6c0.3,0,0.5,0.3,0.5,0.6c0,0.3-0.2,0.6-0.5,0.6C93.4,55.2,93.2,55,93.2,54.6"
		/>
	<path class="st0" d="M35.9,52.5c0-0.2,0.3-0.4,0.6-0.4c0.3,0,0.6,0.2,0.6,0.4c0,0.2-0.3,0.4-0.6,0.4C36.2,52.9,35.9,52.8,35.9,52.5
		"/>
	<path class="st0" d="M62,22.7c0-0.3,0.2-0.5,0.4-0.5c0.2,0,0.4,0.2,0.4,0.5c0,0.3-0.2,0.5-0.4,0.5C62.2,23.2,62,22.9,62,22.7"/>
	<path class="st0" d="M35.8,46.8c0-0.2,0.2-0.4,0.4-0.4c0.2,0,0.4,0.2,0.4,0.4s-0.2,0.4-0.4,0.4C36,47.1,35.8,47,35.8,46.8"/>
	<path class="st0" d="M97.7,47.5c0-0.4,0.2-0.6,0.5-0.6s0.5,0.3,0.5,0.6c0,0.4-0.2,0.6-0.5,0.6S97.7,47.9,97.7,47.5"/>
	<path class="st0" d="M97.8,54.3c0-0.2,0.1-0.4,0.2-0.4c0.1,0,0.2,0.2,0.2,0.4c0,0.2-0.1,0.4-0.2,0.4C97.9,54.6,97.8,54.5,97.8,54.3
		"/>
	<path class="st0" d="M98.2,40.2c-1.1-0.7-2.8,0.2-3,1.4c-0.1,1.3,1.7,2.5,2.9,1.8c-0.9-0.1-1.6-0.9-1.5-1.8
		C96.7,40.8,97.4,40.2,98.2,40.2"/>
	<path class="st11" d="M98.2,40.2c-1.1-0.7-2.8,0.2-3,1.4c-0.1,1.3,1.7,2.5,2.9,1.8c-0.9-0.1-1.6-0.9-1.5-1.8
		C96.7,40.8,97.4,40.2,98.2,40.2z"/>
	<path class="st8" d="M74.5,48.2c0-1.6,1.3-2.9,2.9-2.9c1.6,0,2.9,1.3,2.9,2.9c0,1.6-1.3,2.9-2.9,2.9C75.8,51.1,74.5,49.8,74.5,48.2
		z"/>
	<path class="st9" d="M107.1,79.7c0,0-2.8-1.7-4.7-2.5c-2.8-1.1-7.4-2-7.4-2v3.9L107.1,79.7z"/>
	<path class="st7" d="M28.2,79c0-2.3-3.1-6.3-7.4-6.4c-5.1-0.1-9.1,3.9-9,12.8c0.1,9.6,4.8,11.5,8.4,11.6c2.5,0.1,4.4-0.8,5.3-2.4
		v1.9h8v-8.1c0.1,5.5,3,8.7,7.4,8.7c1.4,0,3.4-0.4,4.9-1.8v1.2h13.6v-1.2c0.6,1,1.5,1.5,2.7,1.5c0.9,0,1.6-0.2,2.3-0.9v0.6l7.4,0V79
		h-7.2v0.4c-1.3-1.1-3.2-0.9-4.3-0.5c-0.5,0.2-1.3,0.9-1.8,1.7c-0.3-0.9-1.6-2.1-3.1-2.1c-0.3,0-2.1,0.1-2.7,1.2l0-0.7h-6.9
		c0.8-0.3,1.6-3.3,0.2-5c-1.7-2.1-4.2-1.2-5.2,0.3c-0.8-1.5-3.9-2.3-5.3-0.1c-0.7,1.3-1,3,0,4.4c0,0-0.3,0-0.5,0
		c-0.8,0-1.7,0.9-1.7,0.9l0-0.4L28.2,79z"/>
	<path class="st18" d="M28.2,79c0-2.3-3.1-6.3-7.4-6.4c-5.1-0.1-9.1,3.9-9,12.8c0.1,9.6,4.8,11.5,8.4,11.6c2.5,0.1,4.4-0.8,5.3-2.4
		v1.9h8v-8.1c0.1,5.5,3,8.7,7.4,8.7c1.4,0,3.4-0.4,4.9-1.8v1.2h13.6v-1.2c0.6,1,1.5,1.5,2.7,1.5c0.9,0,1.6-0.2,2.3-0.9v0.6l7.4,0V79
		h-7.2v0.4c-1.3-1.1-3.2-0.9-4.3-0.5c-0.5,0.2-1.3,0.9-1.8,1.7c-0.3-0.9-1.6-2.1-3.1-2.1c-0.3,0-2.1,0.1-2.7,1.2l0-0.7h-6.9
		c0.8-0.3,1.6-3.3,0.2-5c-1.7-2.1-4.2-1.2-5.2,0.3c-0.8-1.5-3.9-2.3-5.3-0.1c-0.7,1.3-1,3,0,4.4c0,0-0.3,0-0.5,0
		c-0.8,0-1.7,0.9-1.7,0.9l0-0.4L28.2,79z"/>
	<path class="st0" d="M27.2,83.1l0,0.9c0,5.1-0.9,11.4-6.6,11.4c-5.4,0-7.1-5.3-7.1-10.5c0-5.1,1.7-10.8,7.1-10.8
		c2.9,0,5.1,2.1,6.2,5.1l-4.8,2c0-0.8-0.5-2.1-1.4-2.1c-2.3,0-2.1,4.7-2.1,6.3c0.1,1.5,0,5.1,1.9,5.1c1.3,0,1.7-1.7,1.7-3l-1.8,0
		l0-4.3L27.2,83.1z"/>
	<path class="st0" d="M35.3,86.2c-0.4-0.2-1-0.5-1.3-0.5c-1.8,0-2,1.9-2,3.4l0,5.8h-4.7l0-14.4l4.8,0l-0.3,2.8l0,0.1
		c0.5-1.8,1.7-3.2,3.5-3.1L35.3,86.2z"/>
	<path class="st0" d="M47,87.7c0,4-1.9,7.5-5.9,7.5c-4.1,0-5.9-3.5-5.9-7.5c0-4,1.9-7.5,5.9-7.5C45.1,80.2,47,83.7,47,87.7
		 M39.7,87.7c0,1.5,0.2,3.5,1.3,3.5c1.1,0,1.3-2,1.3-3.5c0-1.5-0.2-3.5-1.3-3.5C39.9,84.2,39.7,86.3,39.7,87.7 M36.4,76.3
		c0-1.2,0.9-2.2,2-2.2c1.1,0,2,1,2,2.2c0,1.2-0.9,2.2-2,2.2C37.3,78.6,36.4,77.6,36.4,76.3 M41.7,76.3c0-1.2,0.9-2.2,2-2.2
		c1.1,0,2,1,2,2.2c0,1.2-0.9,2.2-2,2.2C42.6,78.6,41.7,77.6,41.7,76.3"/>
	<path class="st0" d="M51.7,83.2L51.7,83.2c0.5-1.5,1.7-3,3.3-3c2.7,0,3.4,2.6,3.4,5.2l0,9.5l-4.7,0l0-7.3c0-1.2-0.1-2.1-0.9-2.1
		c-0.9,0-1,1-1,2.5l0,6.9l-4.7,0l0-14.4l4.7,0L51.7,83.2z"/>
	<path class="st0" d="M70.2,94.9l-4.7,0l0.2-2.4l0-0.1c-0.6,1.5-1.7,2.7-3.3,2.7c-3.3,0-3.9-4.8-3.9-7.6c0-2.8,0.8-7.4,4-7.4
		c1.5,0,2.5,1.1,3.1,2.6l0-0.1l-0.2-2.2l4.8,0L70.2,94.9z M65.3,89.5c0.1-0.7,0.1-1.6,0.1-2c0-0.4,0-1.1-0.1-1.7
		c-0.1-0.6-0.4-1.2-0.9-1.2c-0.6,0-0.8,0.7-1,1.4c-0.1,0.8-0.1,1.7-0.1,2.1c0,0.4,0,1.1,0.1,1.6c0.1,0.5,0.4,1,0.8,1
		C64.9,90.8,65.2,90.2,65.3,89.5"/>
	<path class="st7" d="M102.3,79.9V79H83.7l0,9.8h-0.8l0-15.9l-8.1,0v23.5l11.8,0l0-0.8c1.4,0.9,2.4,1.1,4.1,1.2
		c1.8,0,2.9-0.3,4.4-1.2v0.9h14.3l0.1-0.4c1.2,0.7,1.6,0.8,2.7,0.7c0.8-0.1,1.3-0.2,2-0.6l0.1,0.3l7.1,0l-0.1-24.6h-7.4l0,7.2
		c-1.3-0.6-2.4-0.6-3.7,0c-0.9,0.4-1.5,1.1-1.9,1.8c-0.8-1.3-2-2-3.5-1.9C103.6,79,103,79.2,102.3,79.9"/>
	<path class="st18" d="M102.3,79.9V79H83.7l0,9.8h-0.8l0-15.9l-8.1,0v23.5l11.8,0l0-0.8c1.4,0.9,2.4,1.1,4.1,1.2
		c1.8,0,2.9-0.3,4.4-1.2v0.9h14.3l0.1-0.4c1.2,0.7,1.6,0.8,2.7,0.7c0.8-0.1,1.3-0.2,2-0.6l0.1,0.3l7.1,0l-0.1-24.6h-7.4l0,7.2
		c-1.3-0.6-2.4-0.6-3.7,0c-0.9,0.4-1.5,1.1-1.9,1.8c-0.8-1.3-2-2-3.5-1.9C103.6,79,103,79.2,102.3,79.9z"/>
	<polygon class="st0" points="76.4,95 76.4,74.4 81.3,74.4 81.3,90.1 85,90.1 85,95 	"/>
	<path class="st0" d="M89.5,80.6l0,7.8c0,1.7,0.1,2.5,0.9,2.5c0.8,0,0.9-0.7,0.9-2.5l0-7.8l4.7,0l0,8.5c0,4.3-2.2,6.2-5.7,6.2
		c-3.7,0-5.6-2.3-5.6-6.2l0-8.5L89.5,80.6z"/>
	<path class="st0" d="M101.3,83.2L101.3,83.2c0.5-1.5,1.7-3,3.3-3c2.7,0,3.4,2.6,3.4,5.2l0,9.5l-4.7,0l0-7.3c0-1.2-0.1-2.1-0.9-2.1
		c-0.9,0-1,1-1,2.5l0,6.9l-4.7,0l0-14.4l4.7,0L101.3,83.2z"/>
	<path class="st0" d="M115.1,93.1L115.1,93.1c-0.7,1.3-1.5,2.2-2.9,2.2c-3.3,0-4.1-4.5-4.1-7.4c0-3,0.6-7.6,4.1-7.6
		c1.5,0,2.4,0.9,3,2.4l0-0.1c0-0.7-0.1-1.3-0.1-2l0-7.4l4.7,0l0,21.8l-4.8,0L115.1,93.1z M115.2,87.7c0-1.4-0.2-3-1-2.9
		c-1,0-1.2,1.4-1.2,3c0,1.5,0.2,3,1.1,3C115.1,90.7,115.2,89.2,115.2,87.7"/>
	<polygon class="st0" points="33.6,41.6 35.5,41.6 36.1,39.7 36.7,41.6 38.7,41.6 37.1,42.5 37.5,44.1 36.1,43.2 34.6,44.1 
		35.2,42.4 	"/>
	<polygon class="st19" points="33.6,41.6 35.5,41.6 36.1,39.7 36.7,41.6 38.7,41.6 37.1,42.5 37.5,44.1 36.1,43.2 34.6,44.1 
		35.2,42.4 	"/>
	<polygon class="st0" points="34.5,41.8 35.6,41.8 36.1,40.4 36.5,41.8 37.8,41.8 36.7,42.3 37.1,43.5 36.1,42.9 35.1,43.5 
		35.5,42.3 	"/>
	<polygon class="st19" points="34.5,41.8 35.6,41.8 36.1,40.4 36.5,41.8 37.8,41.8 36.7,42.3 37.1,43.5 36.1,42.9 35.1,43.5 
		35.5,42.3 	"/>
	<polygon class="st0" points="60.2,8.3 61.4,8.3 61.8,7.1 62.1,8.3 63.4,8.3 62.4,8.8 62.7,9.9 61.8,9.3 60.8,9.9 61.2,8.8 	"/>
	<polygon class="st20" points="60.2,8.3 61.4,8.3 61.8,7.1 62.1,8.3 63.4,8.3 62.4,8.8 62.7,9.9 61.8,9.3 60.8,9.9 61.2,8.8 	"/>
	<polygon class="st0" points="60.7,8.4 61.5,8.4 61.8,7.6 62,8.4 62.8,8.4 62.1,8.7 62.4,9.5 61.8,9.1 61.1,9.5 61.4,8.7 	"/>
	<polygon class="st20" points="60.7,8.4 61.5,8.4 61.8,7.6 62,8.4 62.8,8.4 62.1,8.7 62.4,9.5 61.8,9.1 61.1,9.5 61.4,8.7 	"/>
	<path class="st0" d="M82.4,55.3c0-0.4,0.4-0.8,0.8-0.8c0.4,0,0.8,0.4,0.8,0.8c0,0.4-0.4,0.8-0.8,0.8C82.7,56.1,82.4,55.7,82.4,55.3
		"/>
	<path class="st21" d="M82.4,55.3c0-0.4,0.4-0.8,0.8-0.8c0.4,0,0.8,0.4,0.8,0.8c0,0.4-0.4,0.8-0.8,0.8
		C82.7,56.1,82.4,55.7,82.4,55.3z"/>
	<path class="st0" d="M44.6,54.5c0-0.4,0.3-0.7,0.7-0.7c0.4,0,0.7,0.3,0.7,0.7c0,0.4-0.3,0.7-0.7,0.7C44.9,55.3,44.6,54.9,44.6,54.5
		"/>
	<path class="st0" d="M61.7,36c0-0.4,0.3-0.7,0.7-0.7c0.4,0,0.7,0.3,0.7,0.7s-0.3,0.7-0.7,0.7C62,36.7,61.7,36.4,61.7,36"/>
	<path class="st0" d="M79.8,44.2c0-0.6,0.4-1,1-1c0.6,0,1,0.4,1,1c0,0.6-0.4,1-1,1C80.3,45.2,79.8,44.8,79.8,44.2"/>
	<path class="st0" d="M65,55.3c0-0.3,0.2-0.5,0.5-0.5c0.3,0,0.5,0.2,0.5,0.5c0,0.3-0.2,0.5-0.5,0.5C65.2,55.8,65,55.6,65,55.3"/>
	<path class="st0" d="M39,55.4c0-0.5,0.4-0.9,0.9-0.9c0.5,0,0.9,0.4,0.9,0.9c0,0.5-0.4,0.9-0.9,0.9C39.4,56.3,39,55.9,39,55.4"/>
	<path class="st0" d="M76.1,53.9c0-0.4,0.3-0.7,0.7-0.7c0.4,0,0.7,0.3,0.7,0.7c0,0.4-0.3,0.7-0.7,0.7C76.4,54.6,76.1,54.3,76.1,53.9
		"/>
	<path class="st0" d="M61.5,41.9c0-0.5,0.4-0.9,0.9-0.9c0.5,0,0.9,0.4,0.9,0.9c0,0.5-0.4,0.9-0.9,0.9C62,42.8,61.5,42.4,61.5,41.9"
		/>
</g>
</svg>
